<?xml version="1.0" standalone="no"?>
<!DOCTYPE svg PUBLIC "-//W3C//DTD SVG 20010904//EN"
 "http://www.w3.org/TR/2001/REC-SVG-20010904/DTD/svg10.dtd">
<svg version="1.0" xmlns="http://www.w3.org/2000/svg"
 width="512.000000pt" height="512.000000pt" viewBox="0 0 512.000000 512.000000"
 preserveAspectRatio="xMidYMid meet">
<metadata>
Created by potrace 1.14, written by Peter Selinger 2001-2017
</metadata>
<g transform="translate(0.000000,512.000000) scale(0.100000,-0.100000)"
fill="#000000" stroke="none">
<path d="M2500 4955 c-74 -28 -2401 -1197 -2430 -1222 -70 -58 -64 94 -64
-1768 0 -1550 1 -1682 17 -1711 22 -41 69 -81 111 -92 19 -6 179 -10 357 -10
290 0 328 2 359 18 50 26 85 64 98 107 7 27 11 450 11 1413 0 756 0 1389 0
1405 l1 30 1595 -1 c877 0 1598 -3 1601 -7 3 -3 7 -644 7 -1424 l2 -1418 25
-38 c15 -22 45 -47 73 -61 47 -24 49 -24 370 -24 353 0 377 3 430 57 17 16 35
44 41 63 8 24 11 495 11 1703 -1 1558 -2 1672 -18 1702 -9 18 -27 42 -40 53
-12 12 -566 293 -1232 626 -863 431 -1221 606 -1250 608 -22 2 -56 -2 -75 -9z"/>
<path d="M2534 2831 c-34 -6 -83 -50 -92 -84 -5 -17 -8 -270 -8 -560 1 -317
-3 -531 -8 -535 -5 -3 -253 -6 -550 -6 -506 -1 -543 -2 -568 -19 -65 -44 -62
-8 -62 -697 0 -694 -2 -671 67 -706 29 -16 129 -17 1248 -17 1155 0 1217 0
1246 18 17 10 38 32 48 48 18 30 19 90 19 1252 0 1146 -1 1222 -18 1247 -43
65 -8 62 -687 62 -338 1 -624 -1 -635 -3z"/>
</g>
</svg>
